<svg data-v-423bf9ae="" xmlns="http://www.w3.org/2000/svg" viewBox="0 0 570 91" class="iconLeft"><!----><!----><!----><g data-v-423bf9ae="" id="456286b9-3fe0-4e84-867e-d83854027e80" fill="black" transform="matrix(5.494505456117445,0,0,5.494505456117445,106.86972473493327,2.857144639730329)"><path d="M5.92 13.13L5.92 13.13L5.92 13.13Q4.62 13.13 3.65 12.76L3.65 12.76L3.65 12.76Q2.69 12.39 2.04 11.72L2.04 11.72L2.04 11.72Q1.40 11.04 1.09 10.09L1.09 10.09L1.09 10.09Q0.77 9.14 0.77 7.98L0.77 7.98L0.77 7.98Q0.77 6.85 1.11 5.91L1.11 5.91L1.11 5.91Q1.44 4.96 2.10 4.29L2.10 4.29L2.10 4.29Q2.75 3.61 3.73 3.23L3.73 3.23L3.73 3.23Q4.71 2.86 6.00 2.86L6.00 2.86L6.00 2.86Q6.87 2.86 7.52 2.98L7.52 2.98L7.52 2.98Q8.18 3.11 8.62 3.33L8.62 3.33L8.62 3.33Q9.06 3.55 9.28 3.85L9.28 3.85L9.28 3.85Q9.50 4.14 9.50 4.48L9.50 4.48L9.50 4.48Q9.50 4.73 9.38 4.95L9.38 4.95L9.38 4.95Q9.26 5.16 9.03 5.33L9.03 5.33L9.03 5.33Q8.80 5.49 8.46 5.58L8.46 5.58L8.46 5.58Q8.13 5.67 7.68 5.67L7.68 5.67L7.68 5.67Q7.68 5.25 7.58 4.89L7.58 4.89L7.58 4.89Q7.48 4.54 7.26 4.29L7.26 4.29L7.26 4.29Q7.05 4.03 6.72 3.89L6.72 3.89L6.72 3.89Q6.39 3.75 5.95 3.75L5.95 3.75L5.95 3.75Q5.18 3.75 4.65 4.03L4.65 4.03L4.65 4.03Q4.11 4.31 3.77 4.85L3.77 4.85L3.77 4.85Q3.43 5.39 3.28 6.18L3.28 6.18L3.28 6.18Q3.12 6.97 3.12 7.98L3.12 7.98L3.12 7.98Q3.12 9.00 3.28 9.78L3.28 9.78L3.28 9.78Q3.45 10.56 3.80 11.09L3.80 11.09L3.80 11.09Q4.16 11.63 4.73 11.90L4.73 11.90L4.73 11.90Q5.30 12.18 6.13 12.18L6.13 12.18L6.13 12.18Q6.39 12.18 6.65 12.16L6.65 12.16L6.65 12.16Q6.91 12.14 7.16 12.09L7.16 12.09L7.16 10.03L7.16 10.03Q7.16 9.47 6.90 9.25L6.90 9.25L6.90 9.25Q6.65 9.03 6.16 9.03L6.16 9.03L5.97 9.03L5.97 8.29L10.38 8.29L10.38 9.03L10.19 9.03L10.19 9.03Q9.98 9.03 9.82 9.08L9.82 9.08L9.82 9.08Q9.67 9.13 9.56 9.26L9.56 9.26L9.56 9.26Q9.46 9.38 9.41 9.58L9.41 9.58L9.41 9.58Q9.37 9.78 9.37 10.08L9.37 10.08L9.37 12.38L9.37 12.38Q8.54 12.76 7.71 12.94L7.71 12.94L7.71 12.94Q6.88 13.13 5.92 13.13ZM11.97 3.22L11.97 3.22L11.97 3.22Q11.97 2.95 12.06 2.76L12.06 2.76L12.06 2.76Q12.15 2.57 12.31 2.45L12.31 2.45L12.31 2.45Q12.48 2.33 12.69 2.27L12.69 2.27L12.69 2.27Q12.91 2.21 13.16 2.21L13.16 2.21L13.16 2.21Q13.40 2.21 13.62 2.27L13.62 2.27L13.62 2.27Q13.84 2.33 14 2.45L14 2.45L14 2.45Q14.16 2.57 14.26 2.76L14.26 2.76L14.26 2.76Q14.36 2.95 14.36 3.22L14.36 3.22L14.36 3.22Q14.36 3.48 14.26 3.67L14.26 3.67L14.26 3.67Q14.16 3.86 14 3.99L14 3.99L14 3.99Q13.84 4.11 13.62 4.17L13.62 4.17L13.62 4.17Q13.40 4.23 13.16 4.23L13.16 4.23L13.16 4.23Q12.91 4.23 12.69 4.17L12.69 4.17L12.69 4.17Q12.48 4.11 12.31 3.99L12.31 3.99L12.31 3.99Q12.15 3.86 12.06 3.67L12.06 3.67L12.06 3.67Q11.97 3.48 11.97 3.22ZM11.01 12.25L11.17 12.25L11.17 12.25Q11.33 12.25 11.50 12.22L11.50 12.22L11.50 12.22Q11.68 12.19 11.82 12.09L11.82 12.09L11.82 12.09Q11.97 12.00 12.07 11.82L12.07 11.82L12.07 11.82Q12.17 11.64 12.17 11.34L12.17 11.34L12.17 7.09L12.17 7.09Q12.17 6.81 12.07 6.64L12.07 6.64L12.07 6.64Q11.97 6.47 11.82 6.38L11.82 6.38L11.82 6.38Q11.67 6.29 11.49 6.26L11.49 6.26L11.49 6.26Q11.32 6.23 11.17 6.23L11.17 6.23L11.01 6.23L11.01 5.49L14.29 5.49L14.29 11.34L14.29 11.34Q14.29 11.64 14.39 11.82L14.39 11.82L14.39 11.82Q14.49 12.00 14.64 12.09L14.64 12.09L14.64 12.09Q14.79 12.19 14.96 12.22L14.96 12.22L14.96 12.22Q15.14 12.25 15.29 12.25L15.29 12.25L15.46 12.25L15.46 13.00L11.01 13.00L11.01 12.25ZM20.65 12.25L20.65 13.00L15.98 13.00L15.98 12.25L16.02 12.25L16.02 12.25Q16.26 12.25 16.45 12.22L16.45 12.22L16.45 12.22Q16.65 12.18 16.80 12.08L16.80 12.08L16.80 12.08Q16.94 11.97 17.02 11.77L17.02 11.77L17.02 11.77Q17.10 11.57 17.10 11.25L17.10 11.25L17.10 7.18L17.10 7.18Q17.10 6.88 17.02 6.69L17.02 6.69L17.02 6.69Q16.95 6.50 16.82 6.40L16.82 6.40L16.82 6.40Q16.69 6.30 16.50 6.27L16.50 6.27L16.50 6.27Q16.32 6.23 16.08 6.23L16.08 6.23L16.04 6.23L16.04 5.49L18.87 5.49L19.15 6.58L19.22 6.58L19.22 6.58Q19.36 6.27 19.52 6.03L19.52 6.03L19.52 6.03Q19.69 5.80 19.92 5.64L19.92 5.64L19.92 5.64Q20.15 5.48 20.46 5.40L20.46 5.40L20.46 5.40Q20.77 5.33 21.20 5.33L21.20 5.33L21.20 5.33Q22.03 5.33 22.42 5.62L22.42 5.62L22.42 5.62Q22.80 5.91 22.80 6.46L22.80 6.46L22.80 6.46Q22.80 7.10 22.34 7.46L22.34 7.46L22.34 7.46Q21.88 7.81 21.03 7.81L21.03 7.81L21.03 7.81Q21.03 7.53 21.00 7.31L21.00 7.31L21.00 7.31Q20.97 7.09 20.89 6.95L20.89 6.95L20.89 6.95Q20.81 6.80 20.68 6.73L20.68 6.73L20.68 6.73Q20.54 6.65 20.34 6.65L20.34 6.65L20.34 6.65Q20.10 6.65 19.92 6.77L19.92 6.77L19.92 6.77Q19.74 6.90 19.62 7.09L19.62 7.09L19.62 7.09Q19.50 7.29 19.42 7.53L19.42 7.53L19.42 7.53Q19.34 7.78 19.29 8.03L19.29 8.03L19.29 8.03Q19.25 8.28 19.24 8.50L19.24 8.50L19.24 8.50Q19.22 8.73 19.22 8.89L19.22 8.89L19.22 11.31L19.22 11.31Q19.22 11.62 19.30 11.81L19.30 11.81L19.30 11.81Q19.37 12.00 19.50 12.09L19.50 12.09L19.50 12.09Q19.63 12.19 19.81 12.22L19.81 12.22L19.81 12.22Q20.00 12.25 20.20 12.25L20.20 12.25L20.65 12.25ZM23.26 12.25L23.42 12.25L23.42 12.25Q23.58 12.25 23.75 12.22L23.75 12.22L23.75 12.22Q23.93 12.19 24.07 12.09L24.07 12.09L24.07 12.09Q24.22 12.00 24.32 11.82L24.32 11.82L24.32 11.82Q24.42 11.64 24.42 11.34L24.42 11.34L24.42 3.95L24.42 3.95Q24.42 3.67 24.32 3.50L24.32 3.50L24.32 3.50Q24.22 3.34 24.07 3.24L24.07 3.24L24.07 3.24Q23.92 3.15 23.74 3.12L23.74 3.12L23.74 3.12Q23.57 3.10 23.42 3.10L23.42 3.10L23.26 3.10L23.26 2.36L26.54 2.36L26.54 11.34L26.54 11.34Q26.54 11.64 26.64 11.82L26.64 11.82L26.64 11.82Q26.74 12.00 26.89 12.09L26.89 12.09L26.89 12.09Q27.04 12.19 27.21 12.22L27.21 12.22L27.21 12.22Q27.39 12.25 27.54 12.25L27.54 12.25L27.71 12.25L27.71 13.00L23.26 13.00L23.26 12.25ZM31.18 13.13L31.18 13.13L31.18 13.13Q30.42 13.13 29.88 13.01L29.88 13.01L29.88 13.01Q29.35 12.89 29.01 12.67L29.01 12.67L29.01 12.67Q28.67 12.45 28.52 12.15L28.52 12.15L28.52 12.15Q28.36 11.85 28.36 11.50L28.36 11.50L28.36 11.50Q28.36 11.16 28.50 10.95L28.50 10.95L28.50 10.95Q28.63 10.74 28.83 10.62L28.83 10.62L28.83 10.62Q29.03 10.51 29.26 10.47L29.26 10.47L29.26 10.47Q29.48 10.43 29.67 10.43L29.67 10.43L29.67 10.43Q29.67 10.87 29.78 11.22L29.78 11.22L29.78 11.22Q29.89 11.57 30.08 11.81L30.08 11.81L30.08 11.81Q30.28 12.05 30.56 12.18L30.56 12.18L30.56 12.18Q30.84 12.31 31.18 12.31L31.18 12.31L31.18 12.31Q31.54 12.31 31.80 12.24L31.80 12.24L31.80 12.24Q32.07 12.16 32.23 12.03L32.23 12.03L32.23 12.03Q32.40 11.89 32.48 11.72L32.48 11.72L32.48 11.72Q32.57 11.55 32.57 11.35L32.57 11.35L32.57 11.35Q32.57 11.12 32.48 10.94L32.48 10.94L32.48 10.94Q32.40 10.76 32.20 10.60L32.20 10.60L32.20 10.60Q32.00 10.44 31.67 10.28L31.67 10.28L31.67 10.28Q31.34 10.13 30.84 9.96L30.84 9.96L30.84 9.96Q30.28 9.76 29.84 9.54L29.84 9.54L29.84 9.54Q29.41 9.32 29.11 9.03L29.11 9.03L29.11 9.03Q28.81 8.75 28.66 8.38L28.66 8.38L28.66 8.38Q28.51 8.02 28.51 7.55L28.51 7.55L28.51 7.55Q28.51 6.99 28.72 6.57L28.72 6.57L28.72 6.57Q28.94 6.15 29.33 5.88L29.33 5.88L29.33 5.88Q29.73 5.60 30.28 5.46L30.28 5.46L30.28 5.46Q30.84 5.33 31.51 5.33L31.51 5.33L31.51 5.33Q32.18 5.33 32.64 5.44L32.64 5.44L32.64 5.44Q33.11 5.55 33.40 5.74L33.40 5.74L33.40 5.74Q33.69 5.92 33.83 6.15L33.83 6.15L33.83 6.15Q33.97 6.38 33.97 6.62L33.97 6.62L33.97 6.62Q33.97 7.10 33.64 7.34L33.64 7.34L33.64 7.34Q33.30 7.59 32.54 7.59L32.54 7.59L32.54 7.59Q32.54 6.89 32.23 6.50L32.23 6.50L32.23 6.50Q31.92 6.12 31.31 6.12L31.31 6.12L31.31 6.12Q31.08 6.12 30.87 6.17L30.87 6.17L30.87 6.17Q30.67 6.23 30.51 6.34L30.51 6.34L30.51 6.34Q30.36 6.45 30.27 6.61L30.27 6.61L30.27 6.61Q30.17 6.77 30.17 6.99L30.17 6.99L30.17 6.99Q30.17 7.21 30.26 7.39L30.26 7.39L30.26 7.39Q30.34 7.57 30.56 7.73L30.56 7.73L30.56 7.73Q30.78 7.89 31.14 8.05L31.14 8.05L31.14 8.05Q31.51 8.22 32.09 8.42L32.09 8.42L32.09 8.42Q32.55 8.58 32.95 8.79L32.95 8.79L32.95 8.79Q33.34 9.00 33.62 9.27L33.62 9.27L33.62 9.27Q33.91 9.54 34.06 9.88L34.06 9.88L34.06 9.88Q34.22 10.23 34.22 10.67L34.22 10.67L34.22 10.67Q34.22 11.25 34.02 11.71L34.02 11.71L34.02 11.71Q33.82 12.17 33.43 12.48L33.43 12.48L33.43 12.48Q33.04 12.80 32.47 12.96L32.47 12.96L32.47 12.96Q31.90 13.13 31.18 13.13ZM44.09 3.86L44.09 11.34L44.09 11.34Q44.09 11.64 44.15 11.82L44.15 11.82L44.15 11.82Q44.20 12.00 44.30 12.09L44.30 12.09L44.30 12.09Q44.40 12.19 44.53 12.22L44.53 12.22L44.53 12.22Q44.66 12.25 44.81 12.25L44.81 12.25L45.40 12.25L45.40 13.00L40.56 13.00L40.56 12.25L41.15 12.25L41.15 12.25Q41.31 12.25 41.44 12.22L41.44 12.22L41.44 12.22Q41.57 12.19 41.67 12.09L41.67 12.09L41.67 12.09Q41.76 12.00 41.82 11.82L41.82 11.82L41.82 11.82Q41.87 11.64 41.87 11.34L41.87 11.34L41.87 3.86L40.75 3.86L40.75 3.86Q40.43 3.86 40.22 3.92L40.22 3.92L40.22 3.92Q40.01 3.99 39.88 4.12L39.88 4.12L39.88 4.12Q39.74 4.25 39.68 4.43L39.68 4.43L39.68 4.43Q39.61 4.61 39.59 4.85L39.59 4.85L39.49 5.71L38.55 5.71L38.62 3.00L47.35 3.00L47.41 5.71L46.48 5.71L46.38 4.85L46.38 4.85Q46.35 4.61 46.28 4.43L46.28 4.43L46.28 4.43Q46.22 4.25 46.08 4.12L46.08 4.12L46.08 4.12Q45.95 3.99 45.74 3.92L45.74 3.92L45.74 3.92Q45.53 3.86 45.21 3.86L45.21 3.86L44.09 3.86ZM52.51 12.25L52.51 13.00L47.83 13.00L47.83 12.25L47.87 12.25L47.87 12.25Q48.11 12.25 48.31 12.22L48.31 12.22L48.31 12.22Q48.51 12.18 48.65 12.08L48.65 12.08L48.65 12.08Q48.79 11.97 48.87 11.77L48.87 11.77L48.87 11.77Q48.95 11.57 48.95 11.25L48.95 11.25L48.95 7.18L48.95 7.18Q48.95 6.88 48.88 6.69L48.88 6.69L48.88 6.69Q48.81 6.50 48.68 6.40L48.68 6.40L48.68 6.40Q48.54 6.30 48.36 6.27L48.36 6.27L48.36 6.27Q48.17 6.23 47.94 6.23L47.94 6.23L47.90 6.23L47.90 5.49L50.73 5.49L51.01 6.58L51.08 6.58L51.08 6.58Q51.21 6.27 51.38 6.03L51.38 6.03L51.38 6.03Q51.54 5.80 51.77 5.64L51.77 5.64L51.77 5.64Q52.00 5.48 52.31 5.40L52.31 5.40L52.31 5.40Q52.62 5.33 53.05 5.33L53.05 5.33L53.05 5.33Q53.88 5.33 54.27 5.62L54.27 5.62L54.27 5.62Q54.66 5.91 54.66 6.46L54.66 6.46L54.66 6.46Q54.66 7.10 54.20 7.46L54.20 7.46L54.20 7.46Q53.73 7.81 52.88 7.81L52.88 7.81L52.88 7.81Q52.88 7.53 52.85 7.31L52.85 7.31L52.85 7.31Q52.82 7.09 52.74 6.95L52.74 6.95L52.74 6.95Q52.66 6.80 52.53 6.73L52.53 6.73L52.53 6.73Q52.40 6.65 52.20 6.65L52.20 6.65L52.20 6.65Q51.95 6.65 51.78 6.77L51.78 6.77L51.78 6.77Q51.60 6.90 51.47 7.09L51.47 7.09L51.47 7.09Q51.35 7.29 51.27 7.53L51.27 7.53L51.27 7.53Q51.19 7.78 51.15 8.03L51.15 8.03L51.15 8.03Q51.11 8.28 51.09 8.50L51.09 8.50L51.09 8.50Q51.08 8.73 51.08 8.89L51.08 8.89L51.08 11.31L51.08 11.31Q51.08 11.62 51.15 11.81L51.15 11.81L51.15 11.81Q51.23 12.00 51.36 12.09L51.36 12.09L51.36 12.09Q51.49 12.19 51.67 12.22L51.67 12.22L51.67 12.22Q51.85 12.25 52.06 12.25L52.06 12.25L52.51 12.25ZM57.39 10.91L57.39 10.91L57.39 10.91Q57.39 11.51 57.59 11.81L57.59 11.81L57.59 11.81Q57.78 12.11 58.19 12.11L58.19 12.11L58.19 12.11Q58.49 12.11 58.73 11.99L58.73 11.99L58.73 11.99Q58.97 11.86 59.15 11.63L59.15 11.63L59.15 11.63Q59.32 11.40 59.41 11.06L59.41 11.06L59.41 11.06Q59.51 10.73 59.51 10.32L59.51 10.32L59.51 9.27L58.88 9.31L58.88 9.31Q58.46 9.33 58.17 9.44L58.17 9.44L58.17 9.44Q57.89 9.56 57.72 9.75L57.72 9.75L57.72 9.75Q57.54 9.95 57.47 10.24L57.47 10.24L57.47 10.24Q57.39 10.53 57.39 10.91ZM58.64 6.17L58.64 6.17L58.64 6.17Q58.37 6.17 58.19 6.28L58.19 6.28L58.19 6.28Q58.01 6.39 57.90 6.59L57.90 6.59L57.90 6.59Q57.79 6.79 57.75 7.07L57.75 7.07L57.75 7.07Q57.70 7.35 57.70 7.68L57.70 7.68L57.70 7.68Q56.76 7.68 56.28 7.46L56.28 7.46L56.28 7.46Q55.81 7.25 55.81 6.74L55.81 6.74L55.81 6.74Q55.81 6.36 56.04 6.08L56.04 6.08L56.04 6.08Q56.27 5.81 56.66 5.64L56.66 5.64L56.66 5.64Q57.05 5.47 57.58 5.39L57.58 5.39L57.58 5.39Q58.10 5.31 58.69 5.31L58.69 5.31L58.69 5.31Q59.43 5.31 59.98 5.44L59.98 5.44L59.98 5.44Q60.53 5.56 60.90 5.84L60.90 5.84L60.90 5.84Q61.26 6.13 61.45 6.58L61.45 6.58L61.45 6.58Q61.63 7.03 61.63 7.69L61.63 7.69L61.63 11.26L61.63 11.26Q61.63 11.55 61.68 11.74L61.68 11.74L61.68 11.74Q61.72 11.93 61.82 12.04L61.82 12.04L61.82 12.04Q61.91 12.15 62.08 12.20L62.08 12.20L62.08 12.20Q62.24 12.25 62.47 12.25L62.47 12.25L62.53 12.25L62.53 13.00L59.92 13.00L59.63 12.03L59.51 12.03L59.51 12.03Q59.27 12.31 59.07 12.52L59.07 12.52L59.07 12.52Q58.86 12.73 58.63 12.87L58.63 12.87L58.63 12.87Q58.40 13.00 58.11 13.07L58.11 13.07L58.11 13.07Q57.82 13.13 57.42 13.13L57.42 13.13L57.42 13.13Q56.96 13.13 56.56 13.00L56.56 13.00L56.56 13.00Q56.16 12.86 55.86 12.57L55.86 12.57L55.86 12.57Q55.56 12.29 55.39 11.86L55.39 11.86L55.39 11.86Q55.22 11.44 55.22 10.86L55.22 10.86L55.22 10.86Q55.22 9.71 56.00 9.17L56.00 9.17L56.00 9.17Q56.79 8.62 58.36 8.57L58.36 8.57L59.51 8.53L59.51 7.76L59.51 7.76Q59.51 7.41 59.48 7.12L59.48 7.12L59.48 7.12Q59.45 6.82 59.36 6.61L59.36 6.61L59.36 6.61Q59.27 6.40 59.10 6.28L59.10 6.28L59.10 6.28Q58.93 6.17 58.64 6.17ZM71.46 5.49L71.46 6.23L71.18 6.23L71.18 6.23Q71.04 6.23 70.93 6.27L70.93 6.27L70.93 6.27Q70.81 6.30 70.71 6.41L70.71 6.41L70.71 6.41Q70.60 6.51 70.50 6.72L70.50 6.72L70.50 6.72Q70.40 6.92 70.27 7.25L70.27 7.25L68.24 13.00L66.40 13.00L64.10 6.90L64.10 6.90Q64.03 6.71 63.93 6.58L63.93 6.58L63.93 6.58Q63.83 6.45 63.69 6.37L63.69 6.37L63.69 6.37Q63.56 6.30 63.39 6.27L63.39 6.27L63.39 6.27Q63.21 6.23 62.98 6.23L62.98 6.23L62.98 5.49L67.32 5.49L67.32 6.23L66.73 6.23L66.73 6.23Q66.52 6.23 66.39 6.35L66.39 6.35L66.39 6.35Q66.27 6.46 66.27 6.68L66.27 6.68L66.27 6.68Q66.27 6.85 66.31 7.01L66.31 7.01L66.31 7.01Q66.36 7.18 66.40 7.29L66.40 7.29L67.33 9.95L67.33 9.95Q67.50 10.39 67.63 10.84L67.63 10.84L67.63 10.84Q67.76 11.29 67.83 11.65L67.83 11.65L67.83 11.65Q67.86 11.48 67.92 11.27L67.92 11.27L67.92 11.27Q67.98 11.05 68.04 10.84L68.04 10.84L68.04 10.84Q68.11 10.63 68.16 10.46L68.16 10.46L68.16 10.46Q68.21 10.29 68.23 10.22L68.23 10.22L69.18 7.41L69.18 7.41Q69.25 7.22 69.29 7.02L69.29 7.02L69.29 7.02Q69.34 6.83 69.34 6.64L69.34 6.64L69.34 6.64Q69.34 6.41 69.18 6.32L69.18 6.32L69.18 6.32Q69.03 6.23 68.79 6.23L68.79 6.23L68.39 6.23L68.39 5.49L71.46 5.49ZM75.62 6.22L75.62 6.22L75.62 6.22Q75.03 6.22 74.69 6.80L74.69 6.80L74.69 6.80Q74.34 7.38 74.31 8.50L74.31 8.50L76.73 8.50L76.73 8.50Q76.73 7.97 76.67 7.55L76.67 7.55L76.67 7.55Q76.60 7.12 76.47 6.83L76.47 6.83L76.47 6.83Q76.34 6.54 76.13 6.38L76.13 6.38L76.13 6.38Q75.92 6.22 75.62 6.22ZM75.75 13.13L75.75 13.13L75.75 13.13Q74.86 13.13 74.18 12.87L74.18 12.87L74.18 12.87Q73.50 12.61 73.04 12.12L73.04 12.12L73.04 12.12Q72.58 11.63 72.35 10.91L72.35 10.91L72.35 10.91Q72.12 10.20 72.12 9.28L72.12 9.28L72.12 9.28Q72.12 8.30 72.35 7.55L72.35 7.55L72.35 7.55Q72.58 6.81 73.03 6.31L73.03 6.31L73.03 6.31Q73.47 5.81 74.12 5.56L74.12 5.56L74.12 5.56Q74.76 5.31 75.59 5.31L75.59 5.31L75.59 5.31Q76.35 5.31 76.96 5.53L76.96 5.53L76.96 5.53Q77.57 5.74 77.99 6.17L77.99 6.17L77.99 6.17Q78.42 6.59 78.64 7.22L78.64 7.22L78.64 7.22Q78.87 7.85 78.87 8.68L78.87 8.68L78.87 9.40L74.28 9.40L74.28 9.40Q74.30 10.10 74.43 10.61L74.43 10.61L74.43 10.61Q74.57 11.12 74.80 11.44L74.80 11.44L74.80 11.44Q75.04 11.77 75.38 11.93L75.38 11.93L75.38 11.93Q75.71 12.09 76.15 12.09L76.15 12.09L76.15 12.09Q76.51 12.09 76.82 12.00L76.82 12.00L76.82 12.00Q77.13 11.92 77.38 11.76L77.38 11.76L77.38 11.76Q77.63 11.61 77.82 11.40L77.82 11.40L77.82 11.40Q78.00 11.19 78.13 10.95L78.13 10.95L78.13 10.95Q78.50 11.16 78.50 11.63L78.50 11.63L78.50 11.63Q78.50 11.94 78.34 12.21L78.34 12.21L78.34 12.21Q78.18 12.48 77.83 12.68L77.83 12.68L77.83 12.68Q77.49 12.89 76.98 13.01L76.98 13.01L76.98 13.01Q76.46 13.13 75.75 13.13ZM79.69 12.25L79.86 12.25L79.86 12.25Q80.01 12.25 80.19 12.22L80.19 12.22L80.19 12.22Q80.36 12.19 80.51 12.09L80.51 12.09L80.51 12.09Q80.66 12.00 80.76 11.82L80.76 11.82L80.76 11.82Q80.86 11.64 80.86 11.34L80.86 11.34L80.86 3.95L80.86 3.95Q80.86 3.67 80.76 3.50L80.76 3.50L80.76 3.50Q80.66 3.34 80.51 3.24L80.51 3.24L80.51 3.24Q80.36 3.15 80.18 3.12L80.18 3.12L80.18 3.12Q80.01 3.10 79.86 3.10L79.86 3.10L79.69 3.10L79.69 2.36L82.98 2.36L82.98 11.34L82.98 11.34Q82.98 11.64 83.08 11.82L83.08 11.82L83.08 11.82Q83.18 12.00 83.33 12.09L83.33 12.09L83.33 12.09Q83.47 12.19 83.65 12.22L83.65 12.22L83.65 12.22Q83.83 12.25 83.98 12.25L83.98 12.25L84.14 12.25L84.14 13.00L79.69 13.00L79.69 12.25Z"></path></g><!----><g data-v-423bf9ae="" id="89804a6a-0df8-4427-bcd1-39e751aa5374" transform="matrix(1.0122275823366782,0,0,1.0122275823366782,-4.611386676261652,-5.070995613982099)" stroke="none" fill="black"><path d="M95 84.907s-5.93-2.35-8.81-3.706c-4.084-1.923-6.775-5.088-8.076-9.448-2.111-7.074-.741-14.034.583-20.995.752-3.956 1.659-7.859 1.029-11.958-2.001-13.002-9.765-21.834-20.763-28.151-10.346-5.942-23.724-6.49-34.434-1.234-6.706 3.29-33.362 23.768-10.327 62.105 3.63 5.206 20.731 19.398 26.578 19.041-8.653-7.857-14.995-35.117-14.995-35.117s8.846 30.884 26.843 39.275c-1.948-5.073-13.926-18.71-8.377-30.092 2.86-5.58 6.49-10.618 10.049-15.734 4.376-6.29 9.417-12.264 10.368-20.265.843.094 1.158.612 1.492 1.134 3.752 5.865 4.479 12.268 3.493 19.004-.227 1.551-.709 3.128-.076 4.702 3.716 9.243.815 17.718-3.223 25.969-1.649 3.37-4.68 4.881-8.513 4.539-2.035-.181-4.066-.381-6.18-.58C65.782 95.508 95 84.907 95 84.907z"></path></g><!----></svg>
